<svg width="680" height="180" viewBox="0 0 680 180" xmlns="http://www.w3.org/2000/svg" role="img" font-family="sans-serif">

  <!-- White background -->
  <rect width="680" height="180" fill="#fff"/>

  <!-- Database -->
  <rect x="63" y="55" width="110" height="60" rx="4" fill="none" stroke="#111" stroke-width="1"/>
  <text x="118" y="81" text-anchor="middle" font-size="14" font-weight="600" fill="#111">Database</text>
  <text x="118" y="101" text-anchor="middle" font-size="12" fill="#444">user data</text>

  <!-- Arrow DB → Server (tip at x=213) -->
  <line x1="173" y1="85" x2="206" y2="85" stroke="#111" stroke-width="1"/>
  <polygon points="213,85 206,81 206,89" fill="#111"/>

  <!-- Server / PHP -->
  <rect x="213" y="45" width="160" height="80" rx="4" fill="none" stroke="#111" stroke-width="1"/>
  <text x="293" y="73" text-anchor="middle" font-size="14" font-weight="600" fill="#111">Server (PHP)</text>
  <text x="293" y="93" text-anchor="middle" font-size="12" fill="#444">Builds HTML on the fly</text>
  <text x="293" y="111" text-anchor="middle" font-size="12" fill="#444">from database queries</text>

  <!-- Arrow Server → Browser (full page, tip at x=443) -->
  <line x1="373" y1="72" x2="436" y2="72" stroke="#111" stroke-width="1"/>
  <polygon points="443,72 436,68 436,76" fill="#111"/>
  <text x="408" y="63" text-anchor="middle" font-size="11" fill="#555">HTML</text>

  <!-- Arrow AJAX (partial, straight, tip at x=373) -->
  <line x1="443" y1="100" x2="380" y2="100" stroke="#111" stroke-width="1" stroke-dasharray="4 3"/>
  <polygon points="373,100 380,96 380,104" fill="#111"/>
  <text x="408" y="115" text-anchor="middle" font-size="11" fill="#555">AJAX</text>

  <!-- Browser -->
  <rect x="443" y="45" width="175" height="80" rx="4" fill="none" stroke="#111" stroke-width="1"/>
  <text x="530" y="73" text-anchor="middle" font-size="14" font-weight="600" fill="#111">Browser</text>
  <text x="530" y="93" text-anchor="middle" font-size="12" fill="#444">Renders full page or</text>
  <text x="530" y="111" text-anchor="middle" font-size="12" fill="#444">handles partial updates</text>
</svg>